<svg xmlns="http://www.w3.org/2000/svg" viewBox="0 0 640.52 315.22"><g id="Layer_6" data-name="Layer 6"><polyline points="119.85 8.54 119.85 3.77 141.27 3.77 141.27 8.54" fill="#ffec00" stroke="#137000" stroke-miterlimit="10" stroke-width="1.94"/><polyline points="162.21 8.54 162.21 3.77 203.78 3.77 203.78 8.54" fill="#ffec00" stroke="#137000" stroke-miterlimit="10" stroke-width="1.94"/><polyline points="216.63 8.54 216.63 3.77 258.51 3.77 258.51 8.54" fill="#ffec00" stroke="#137000" stroke-miterlimit="10" stroke-width="1.94"/><polyline points="190.75 304.35 190.75 308.9 259.19 308.9 259.19 304.35" fill="#ffec00" stroke="#137000" stroke-miterlimit="10" stroke-width="1.94"/><rect x="172.36" y="-153.27" width="295.81" height="619.43" rx="46.21" transform="translate(163.82 476.7) rotate(-90)" fill="#ffec00" stroke="#137000" stroke-miterlimit="10" stroke-width="1.94"/><rect x="30.16" y="143.55" width="142.55" height="147.11" rx="35.6" transform="translate(-115.67 318.54) rotate(-90)" fill="none" stroke="#137000" stroke-miterlimit="10" stroke-width="1.94"/><circle cx="102.22" cy="182.86" r="26.4" fill="none" stroke="#137000" stroke-miterlimit="10" stroke-width="1.94"/><circle cx="102.22" cy="182.86" r="31.24" fill="none" stroke="#137000" stroke-miterlimit="10" stroke-width="1.94"/><circle cx="138.92" cy="251.81" r="24.53" fill="none" stroke="#137000" stroke-miterlimit="10" stroke-width="1.94"/><circle cx="138.92" cy="251.81" r="29.54" fill="none" stroke="#137000" stroke-miterlimit="10" stroke-width="1.94"/><circle cx="64.55" cy="251.66" r="25.61" fill="none" stroke="#137000" stroke-miterlimit="10" stroke-width="1.94"/><circle cx="64.55" cy="251.66" r="30.75" fill="none" stroke="#137000" stroke-miterlimit="10" stroke-width="1.94"/><circle cx="64.55" cy="251.66" r="5.7" fill="none" stroke="#137000" stroke-miterlimit="10" stroke-width="1.94"/><circle cx="64.55" cy="251.66" r="9.59" fill="none" stroke="#137000" stroke-miterlimit="10" stroke-width="1.94"/><circle cx="49.81" cy="182.86" r="11.55" fill="none" stroke="#137000" stroke-miterlimit="10" stroke-width="1.94"/><circle cx="49.07" cy="182.86" r="5.89" fill="none" stroke="#137000" stroke-miterlimit="10" stroke-width="1.94"/><circle cx="102.22" cy="182.86" r="9.24" fill="none" stroke="#137000" stroke-miterlimit="10" stroke-width="1.94"/><circle cx="102.22" cy="182.86" r="3.37" fill="none" stroke="#137000" stroke-miterlimit="10" stroke-width="1.94"/><circle cx="154.49" cy="182.23" r="11.33" fill="none" stroke="#137000" stroke-miterlimit="10" stroke-width="1.94"/><circle cx="141.2" cy="160.13" r="3" fill="none" stroke="#137000" stroke-miterlimit="10" stroke-width="1.94"/><circle cx="138.92" cy="251.81" r="7.73" fill="none" stroke="#137000" stroke-miterlimit="10" stroke-width="1.94"/><circle cx="138.92" cy="251.81" r="15.58" fill="none" stroke="#137000" stroke-miterlimit="10" stroke-width="1.94"/><circle cx="102.22" cy="182.86" r="19.73" fill="none" stroke="#137000" stroke-miterlimit="10" stroke-width="1.94"/><path d="M275.74,133.68a3.57,3.57,0,0,1,3.52-4.33l60.15.41s7.66-.45,9.67,11.3c1.86,10.89-17,20.64-19.92-2.77-.63-5-4.85-4.23-4.85-4.23l-26.65.07a2.48,2.48,0,0,0-2.41,3l6.87,31.07a2.53,2.53,0,0,0,2.47,2h42.08c12.06,0,15.25,23.54,2.19,23.35s-10.36-16.58-13.13-18a7.9,7.9,0,0,0-4.57-.77H287.28A3.38,3.38,0,0,1,284,172.1Z" fill="none" stroke="#137000" stroke-miterlimit="10" stroke-width="1.94"/></g></svg>