<svg xmlns="http://www.w3.org/2000/svg" viewBox="0 0 315.22 640.52"><g id="Layer_6" data-name="Layer 6"><polyline points="305.37 119.28 310.14 119.28 310.14 140.7 305.37 140.7" fill="#ffec00" stroke="#137000" stroke-miterlimit="10" stroke-width="1.94"/><polyline points="305.37 161.64 310.14 161.64 310.14 203.21 305.37 203.21" fill="#ffec00" stroke="#137000" stroke-miterlimit="10" stroke-width="1.94"/><polyline points="305.37 216.06 310.14 216.06 310.14 257.94 305.37 257.94" fill="#ffec00" stroke="#137000" stroke-miterlimit="10" stroke-width="1.94"/><polyline points="9.56 190.18 5 190.18 5 258.61 9.56 258.61" fill="#ffec00" stroke="#137000" stroke-miterlimit="10" stroke-width="1.94"/><rect x="9.56" y="9.97" width="295.81" height="619.43" rx="46.21" fill="#ffec00" stroke="#137000" stroke-miterlimit="10" stroke-width="1.94"/><rect x="25.53" y="27.3" width="142.55" height="147.11" rx="35.6" fill="none" stroke="#137000" stroke-miterlimit="10" stroke-width="1.94"/><circle cx="131.05" cy="101.64" r="26.4" fill="none" stroke="#137000" stroke-miterlimit="10" stroke-width="1.94"/><circle cx="131.05" cy="101.64" r="31.24" fill="none" stroke="#137000" stroke-miterlimit="10" stroke-width="1.94"/><circle cx="62.1" cy="138.34" r="24.53" fill="none" stroke="#137000" stroke-miterlimit="10" stroke-width="1.94"/><circle cx="62.1" cy="138.34" r="29.54" fill="none" stroke="#137000" stroke-miterlimit="10" stroke-width="1.94"/><circle cx="62.25" cy="63.98" r="25.61" fill="none" stroke="#137000" stroke-miterlimit="10" stroke-width="1.94"/><circle cx="62.25" cy="63.98" r="30.75" fill="none" stroke="#137000" stroke-miterlimit="10" stroke-width="1.94"/><circle cx="62.25" cy="63.98" r="5.7" fill="none" stroke="#137000" stroke-miterlimit="10" stroke-width="1.94"/><circle cx="62.25" cy="63.98" r="9.59" fill="none" stroke="#137000" stroke-miterlimit="10" stroke-width="1.94"/><circle cx="131.05" cy="49.24" r="11.55" fill="none" stroke="#137000" stroke-miterlimit="10" stroke-width="1.94"/><circle cx="131.05" cy="48.5" r="5.89" fill="none" stroke="#137000" stroke-miterlimit="10" stroke-width="1.94"/><circle cx="131.05" cy="101.64" r="9.24" fill="none" stroke="#137000" stroke-miterlimit="10" stroke-width="1.94"/><circle cx="131.05" cy="101.64" r="3.37" fill="none" stroke="#137000" stroke-miterlimit="10" stroke-width="1.94"/><circle cx="131.68" cy="153.92" r="11.33" fill="none" stroke="#137000" stroke-miterlimit="10" stroke-width="1.94"/><circle cx="153.78" cy="140.63" r="3" fill="none" stroke="#137000" stroke-miterlimit="10" stroke-width="1.94"/><circle cx="62.1" cy="138.34" r="7.73" fill="none" stroke="#137000" stroke-miterlimit="10" stroke-width="1.94"/><circle cx="62.1" cy="138.34" r="15.58" fill="none" stroke="#137000" stroke-miterlimit="10" stroke-width="1.94"/><circle cx="131.05" cy="101.64" r="19.73" fill="none" stroke="#137000" stroke-miterlimit="10" stroke-width="1.94"/><path d="M180.23,275.16a3.58,3.58,0,0,1,4.33,3.53l-.41,60.14s.44,7.67-11.3,9.67c-10.89,1.86-20.64-17,2.77-19.92,5-.62,4.23-4.85,4.23-4.85l-.07-26.64a2.48,2.48,0,0,0-3-2.42l-31.07,6.88a2.53,2.53,0,0,0-2,2.47V346.1c0,12.06-23.54,15.24-23.35,2.19s16.58-10.37,18-13.13a7.9,7.9,0,0,0,.77-4.57V286.71a3.39,3.39,0,0,1,2.68-3.32Z" fill="none" stroke="#137000" stroke-miterlimit="10" stroke-width="1.94"/></g></svg>