<svg xmlns="http://www.w3.org/2000/svg" viewBox="0 0 315.22 640.52"><g id="Layer_6" data-name="Layer 6"><polyline points="310.3 112.84 315.22 112.84 315.22 134.95 310.3 134.95" fill="#ffec00" stroke="#137000" stroke-miterlimit="10" stroke-width="2"/><polyline points="310.3 156.56 315.22 156.56 315.22 199.47 310.3 199.47" fill="#ffec00" stroke="#137000" stroke-miterlimit="10" stroke-width="2"/><polyline points="310.3 212.74 315.22 212.74 315.22 255.97 310.3 255.97" fill="#ffec00" stroke="#137000" stroke-miterlimit="10" stroke-width="2"/><polyline points="4.95 186.03 0.24 186.03 0.24 256.67 4.95 256.67" fill="#ffec00" stroke="#137000" stroke-miterlimit="10" stroke-width="2"/><rect x="4.95" width="305.35" height="639.42" rx="47.7" fill="#ffec00" stroke="#137000" stroke-miterlimit="10" stroke-width="2"/><rect x="21.43" y="17.89" width="147.15" height="151.85" rx="36.75" fill="none" stroke="#137000" stroke-miterlimit="10" stroke-width="2"/><circle cx="130.36" cy="94.63" r="27.25" fill="none" stroke="#137000" stroke-miterlimit="10" stroke-width="2"/><circle cx="130.36" cy="94.63" r="32.25" fill="none" stroke="#137000" stroke-miterlimit="10" stroke-width="2"/><circle cx="59.18" cy="132.52" r="25.33" fill="none" stroke="#137000" stroke-miterlimit="10" stroke-width="2"/><circle cx="59.18" cy="132.52" r="30.49" fill="none" stroke="#137000" stroke-miterlimit="10" stroke-width="2"/><circle cx="59.33" cy="55.75" r="26.43" fill="none" stroke="#137000" stroke-miterlimit="10" stroke-width="2"/><circle cx="59.33" cy="55.75" r="31.74" fill="none" stroke="#137000" stroke-miterlimit="10" stroke-width="2"/><circle cx="59.33" cy="55.75" r="5.88" fill="none" stroke="#137000" stroke-miterlimit="10" stroke-width="2"/><circle cx="59.33" cy="55.75" r="9.9" fill="none" stroke="#137000" stroke-miterlimit="10" stroke-width="2"/><circle cx="130.36" cy="40.54" r="11.92" fill="none" stroke="#137000" stroke-miterlimit="10" stroke-width="2"/><circle cx="130.36" cy="39.77" r="6.08" fill="none" stroke="#137000" stroke-miterlimit="10" stroke-width="2"/><circle cx="130.36" cy="94.63" r="9.54" fill="none" stroke="#137000" stroke-miterlimit="10" stroke-width="2"/><circle cx="130.36" cy="94.63" r="3.48" fill="none" stroke="#137000" stroke-miterlimit="10" stroke-width="2"/><circle cx="131.01" cy="148.6" r="11.69" fill="none" stroke="#137000" stroke-miterlimit="10" stroke-width="2"/><circle cx="153.82" cy="134.87" r="3.1" fill="none" stroke="#137000" stroke-miterlimit="10" stroke-width="2"/><circle cx="59.18" cy="132.52" r="7.98" fill="none" stroke="#137000" stroke-miterlimit="10" stroke-width="2"/><circle cx="59.18" cy="132.52" r="16.08" fill="none" stroke="#137000" stroke-miterlimit="10" stroke-width="2"/><circle cx="130.36" cy="94.63" r="20.37" fill="none" stroke="#137000" stroke-miterlimit="10" stroke-width="2"/><path d="M181.12,273.75a3.7,3.7,0,0,1,4.47,3.64l-.42,62.09s.46,7.91-11.66,10c-11.25,1.92-21.31-17.59,2.86-20.56,5.17-.65,4.36-5,4.36-5l-.07-27.51a2.57,2.57,0,0,0-3.12-2.49L145.47,301a2.6,2.6,0,0,0-2.05,2.55V347c0,12.46-24.29,15.74-24.1,2.26s17.11-10.69,18.58-13.55a8.11,8.11,0,0,0,.79-4.72V285.67a3.5,3.5,0,0,1,2.77-3.42Z" fill="none" stroke="#137000" stroke-miterlimit="10" stroke-width="2"/></g></svg>