<svg id="Layer_1" data-name="Layer 1" xmlns="http://www.w3.org/2000/svg" viewBox="0 0 37.98 37.98">
<rect x="1" y="1" width="35.98" height="35.98" rx="4.04" fill="none"/>
<path d="M111.46,47.24a3,3,0,0,1,3,3V78.18a3,3,0,0,1-3,3H83.56a3,3,0,0,1-3-3V50.29a3,3,0,0,1,3-3h27.9m0-2H83.56a5,5,0,0,0-5,5V78.18a5,5,0,0,0,5,5h27.9a5,5,0,0,0,5-5V50.29a5,5,0,0,0-5-5Z" transform="translate(-78.52 -45.24)"/>
<polyline points="13.61 29.75 24.37 18.99 13.61 8.23" fill="none" stroke="#000" stroke-linecap="round" stroke-linejoin="round" stroke-width="2"/>
</svg>