<svg xmlns="http://www.w3.org/2000/svg" viewBox="0 0 409.85 825.65"><g id="Layer_4" data-name="Layer 4"><polyline points="400.96 147.97 407.28 147.97 407.28 176.34 400.96 176.34" fill="#ffec00" stroke="#137000" stroke-miterlimit="10" stroke-width="3"/><polyline points="400.96 204.07 407.28 204.07 407.28 259.12 400.96 259.12" fill="#ffec00" stroke="#137000" stroke-miterlimit="10" stroke-width="3"/><polyline points="400.96 276.14 407.28 276.14 407.28 331.61 400.96 331.61" fill="#ffec00" stroke="#137000" stroke-miterlimit="10" stroke-width="3"/><polyline points="9.2 241.87 3.16 241.87 3.16 332.5 9.2 332.5" fill="#ffec00" stroke="#137000" stroke-miterlimit="10" stroke-width="3"/><rect x="9.2" y="3.2" width="391.77" height="820.39" rx="61.2" fill="#ffec00" stroke="#137000" stroke-miterlimit="10" stroke-width="3"/><rect x="30.35" y="26.16" width="188.79" height="194.83" rx="47.15" fill="none" stroke="#137000" stroke-miterlimit="10" stroke-width="3"/><circle cx="170.1" cy="124.61" r="34.97" fill="none" stroke="#137000" stroke-miterlimit="10" stroke-width="3"/><circle cx="170.1" cy="124.61" r="41.38" fill="none" stroke="#137000" stroke-miterlimit="10" stroke-width="3"/><circle cx="78.77" cy="173.22" r="32.49" fill="none" stroke="#137000" stroke-miterlimit="10" stroke-width="3"/><circle cx="78.77" cy="173.22" r="39.12" fill="none" stroke="#137000" stroke-miterlimit="10" stroke-width="3"/><circle cx="78.97" cy="74.73" r="33.92" fill="none" stroke="#137000" stroke-miterlimit="10" stroke-width="3"/><circle cx="78.97" cy="74.73" r="40.72" fill="none" stroke="#137000" stroke-miterlimit="10" stroke-width="3"/><circle cx="78.97" cy="74.73" r="7.55" fill="none" stroke="#137000" stroke-miterlimit="10" stroke-width="3"/><circle cx="78.97" cy="74.73" r="12.71" fill="none" stroke="#137000" stroke-miterlimit="10" stroke-width="3"/><circle cx="170.1" cy="55.2" r="15.29" fill="none" stroke="#137000" stroke-miterlimit="10" stroke-width="3"/><circle cx="170.1" cy="54.23" r="7.8" fill="none" stroke="#137000" stroke-miterlimit="10" stroke-width="3"/><circle cx="170.1" cy="124.61" r="12.24" fill="none" stroke="#137000" stroke-miterlimit="10" stroke-width="3"/><circle cx="170.1" cy="124.61" r="4.46" fill="none" stroke="#137000" stroke-miterlimit="10" stroke-width="3"/><circle cx="170.93" cy="193.85" r="15" fill="none" stroke="#137000" stroke-miterlimit="10" stroke-width="3"/><circle cx="200.19" cy="176.24" r="3.98" fill="none" stroke="#137000" stroke-miterlimit="10" stroke-width="3"/><circle cx="78.77" cy="173.22" r="10.24" fill="none" stroke="#137000" stroke-miterlimit="10" stroke-width="3"/><circle cx="78.77" cy="173.22" r="20.63" fill="none" stroke="#137000" stroke-miterlimit="10" stroke-width="3"/><circle cx="170.1" cy="124.61" r="26.13" fill="none" stroke="#137000" stroke-miterlimit="10" stroke-width="3"/><path d="M235.23,354.42a4.74,4.74,0,0,1,5.73,4.67l-.54,79.66s.59,10.15-15,12.81C211,454,198.12,429,229.13,425.18c6.63-.83,5.59-6.43,5.59-6.43l-.09-35.29a3.29,3.29,0,0,0-4-3.2l-41.15,9.11a3.35,3.35,0,0,0-2.63,3.27v55.73c0,16-31.17,20.19-30.93,2.9s22-13.72,23.85-17.39a10.46,10.46,0,0,0,1-6.05V369.72a4.5,4.5,0,0,1,3.56-4.4Z" fill="none" stroke="#137000" stroke-miterlimit="10" stroke-width="3"/></g></svg>