<svg class="nav_btns" id="Layer_1" data-name="Layer 1" xmlns="http://www.w3.org/2000/svg" viewBox="0 0 92.32 33.88">
<rect x="1" y="1" width="90.32" height="31.88" rx="4" fill="none"/>
<path class="btn_r" d="M111,49.3a3,3,0,0,1,3,3V76.17a3,3,0,0,1-3,3H28.62a3,3,0,0,1-3-3V52.3a3,3,0,0,1,3-3H111m0-2H28.62a5,5,0,0,0-5,5V76.17a5,5,0,0,0,5,5H111a5,5,0,0,0,5-5V52.3a5,5,0,0,0-5-5Z" transform="translate(-23.62 -47.3)"/>
<path class="btn_r" d="M48.44,66.6a2.27,2.27,0,0,0-.57-.68,4.51,4.51,0,0,0-.93-.51A8.11,8.11,0,0,0,45.76,65a10.61,10.61,0,0,1-1.85-.7,6,6,0,0,1-1.44-.93,4,4,0,0,1-.94-1.2A3.61,3.61,0,0,1,41.59,59a3.94,3.94,0,0,1,1-1.25A5.11,5.11,0,0,1,44.19,57a6.34,6.34,0,0,1,1.86-.27,5.55,5.55,0,0,1,1.93.32,4.86,4.86,0,0,1,1.56.88,4.29,4.29,0,0,1,1.05,1.37A4.09,4.09,0,0,1,51,61.06H48.65a3.43,3.43,0,0,0-.23-1,2.34,2.34,0,0,0-.5-.76,2.46,2.46,0,0,0-.81-.5A3.08,3.08,0,0,0,46,58.64a3.43,3.43,0,0,0-1,.14,2.79,2.79,0,0,0-.79.4,1.92,1.92,0,0,0-.51.63,1.79,1.79,0,0,0-.19.84,1.6,1.6,0,0,0,.25.85,2.52,2.52,0,0,0,.66.64,5.37,5.37,0,0,0,1,.48c.36.13.74.26,1.14.38a11.22,11.22,0,0,1,1.47.53,6.62,6.62,0,0,1,1.32.77,4.45,4.45,0,0,1,1.21,1.35A3.57,3.57,0,0,1,51,67.46a3.46,3.46,0,0,1-.39,1.67,3.71,3.71,0,0,1-1.06,1.2,4.86,4.86,0,0,1-1.57.75,6.7,6.7,0,0,1-1.87.25A6.62,6.62,0,0,1,44.05,71a5.19,5.19,0,0,1-1.77-1,4.45,4.45,0,0,1-1.1-1.38,3.89,3.89,0,0,1-.41-1.81h2.34A3.18,3.18,0,0,0,43.39,68a2.08,2.08,0,0,0,.63.8,2.78,2.78,0,0,0,.92.48,4.36,4.36,0,0,0,1.17.15,4,4,0,0,0,1-.12,2.53,2.53,0,0,0,.81-.38,2.07,2.07,0,0,0,.53-.61,1.73,1.73,0,0,0,.2-.83A1.82,1.82,0,0,0,48.44,66.6Z" transform="translate(-23.62 -47.3)"/>
<path class="btn_r" d="M58,60.58h4v1.74H58v5.05a2.77,2.77,0,0,0,.15,1,1.41,1.41,0,0,0,.39.63,1.57,1.57,0,0,0,.61.33,3.07,3.07,0,0,0,.77.09c.2,0,.41,0,.62,0l.63-.08.55-.1.43-.09.26,1.61a2.29,2.29,0,0,1-.61.27,5.78,5.78,0,0,1-.77.19c-.27,0-.56.09-.85.12a8.85,8.85,0,0,1-.89,0,4.92,4.92,0,0,1-1.47-.22,3,3,0,0,1-1.14-.69,3.15,3.15,0,0,1-.75-1.18,5,5,0,0,1-.27-1.74v-5.2H53.08V60.58h2.56V58H58Z" transform="translate(-23.62 -47.3)"/>
<path class="btn_r" d="M71.88,70.67c0-.19-.08-.38-.12-.58a3.71,3.71,0,0,1-.55.48,3.29,3.29,0,0,1-.69.4,3.94,3.94,0,0,1-.82.27,4,4,0,0,1-.94.1,4.45,4.45,0,0,1-1.5-.24,3.45,3.45,0,0,1-1.16-.66,2.74,2.74,0,0,1-.76-1,3,3,0,0,1-.27-1.26,3.26,3.26,0,0,1,.35-1.53,2.9,2.9,0,0,1,1-1.11A4.7,4.7,0,0,1,68,64.92a9,9,0,0,1,2-.21h1.69V64a1.78,1.78,0,0,0-.14-.74,1.64,1.64,0,0,0-.4-.57,1.92,1.92,0,0,0-.69-.38,2.94,2.94,0,0,0-.93-.13,2.66,2.66,0,0,0-.84.12,1.52,1.52,0,0,0-.59.32,1.1,1.1,0,0,0-.35.45,1.56,1.56,0,0,0-.11.57H65.3a2.93,2.93,0,0,1,.3-1.22,3.1,3.1,0,0,1,.86-1,4.05,4.05,0,0,1,1.35-.73,5.79,5.79,0,0,1,1.84-.27,6.48,6.48,0,0,1,1.74.23,4.1,4.1,0,0,1,1.39.68,3.22,3.22,0,0,1,.92,1.14A3.63,3.63,0,0,1,74,64v4.7a7.27,7.27,0,0,0,.1,1.29,4,4,0,0,0,.3,1v.16H72.05A1.84,1.84,0,0,1,71.88,70.67Zm-1.82-1.32a3.33,3.33,0,0,0,.72-.31,2.35,2.35,0,0,0,.55-.42,1.72,1.72,0,0,0,.36-.48v-2h-1.5a5.62,5.62,0,0,0-1.32.14,2.45,2.45,0,0,0-.89.41,1.4,1.4,0,0,0-.43.54,1.56,1.56,0,0,0-.14.7,1.73,1.73,0,0,0,.11.6,1.26,1.26,0,0,0,.35.47,1.55,1.55,0,0,0,.55.31,2.33,2.33,0,0,0,.78.11A3.32,3.32,0,0,0,70.06,69.35Z" transform="translate(-23.62 -47.3)"/>
<path class="btn_r" d="M85.7,60.46a3.78,3.78,0,0,1,.84.19L86.21,63a10.21,10.21,0,0,0-1.06-.18,9.16,9.16,0,0,0-1-.05,4.32,4.32,0,0,0-1.06.11,2.71,2.71,0,0,0-.83.36,2.37,2.37,0,0,0-.66.6,3.49,3.49,0,0,0-.46.83v6.52H78.76V60.58H81l.1,1.46v.25a4.69,4.69,0,0,1,1.55-1.4,4,4,0,0,1,2-.51A7.8,7.8,0,0,1,85.7,60.46Z" transform="translate(-23.62 -47.3)"/>
<path class="btn_r" d="M94,60.58h4v1.74H94v5.05a3,3,0,0,0,.14,1,1.52,1.52,0,0,0,.4.63,1.6,1.6,0,0,0,.6.33,3.13,3.13,0,0,0,.77.09c.21,0,.41,0,.63,0l.62-.08.56-.1.43-.09.25,1.61a2.29,2.29,0,0,1-.61.27,5.27,5.27,0,0,1-.76.19c-.28,0-.56.09-.86.12a8.65,8.65,0,0,1-.88,0,4.83,4.83,0,0,1-1.47-.22,3,3,0,0,1-1.15-.69,3.15,3.15,0,0,1-.75-1.18,5.23,5.23,0,0,1-.26-1.74v-5.2H89.09V60.58h2.56V58H94Z" transform="translate(-23.62 -47.3)"/>
</svg>